<svg width="880" height="22" viewBox="0 0 880 22" fill="none" xmlns="http://www.w3.org/2000/svg">
<path d="M863 11.5001C863.003 11.5001 863.007 11.5001 863.01 11.5001M863 11.5001C863.667 11.5001 872 11.5001 872 22M863 11.5001L1.00537e-06 11.5M863.01 11.5001C863.746 11.4998 872 11.4451 872 0M863.01 11.5001L880 11.5001M17 10.5C16.9968 10.5 16.9935 10.5 16.9899 10.5M17 10.5C16.3334 10.5 8 10.5 8 7.62327e-05M17 10.5L880 10.5M16.9899 10.5C16.254 10.5003 8 10.5549 8 22.0001M16.9899 10.5L0 10.5" stroke="#525859" stroke-width="5"/>
</svg>
